<svg width="36" height="36" viewBox="0 0 36 36" fill="none" xmlns="http://www.w3.org/2000/svg">
<g clip-path="url(#clip0_28_82)">
<path d="M22.8213 33.1071H13.1784C13.0016 33.1071 12.857 33.2518 12.857 33.4286V34.7143C12.857 35.4254 13.4316 36 14.1427 36H21.857C22.5682 36 23.1427 35.4254 23.1427 34.7143V33.4286C23.1427 33.2518 22.9981 33.1071 22.8213 33.1071ZM17.9999 0C10.7235 0 4.82129 5.90223 4.82129 13.1786C4.82129 18.0562 7.47307 22.3152 11.4106 24.5933V29.25C11.4106 29.9612 11.9851 30.5357 12.6963 30.5357H23.3034C24.0146 30.5357 24.5891 29.9612 24.5891 29.25V24.5933C28.5266 22.3152 31.1784 18.0562 31.1784 13.1786C31.1784 5.90223 25.2762 0 17.9999 0ZM23.1387 22.0902L21.6963 22.9259V27.6429H14.3034V22.9259L12.861 22.0902C9.69897 20.2621 7.71415 16.8951 7.71415 13.1786C7.71415 7.49732 12.3186 2.89286 17.9999 2.89286C23.6811 2.89286 28.2856 7.49732 28.2856 13.1786C28.2856 16.8951 26.3008 20.2621 23.1387 22.0902Z" fill="black" fill-opacity="0.85"/>
</g>
<defs>
<clipPath id="clip0_28_82">
<rect width="36" height="36" fill="white"/>
</clipPath>
</defs>
</svg>
