<svg width="36" height="36" viewBox="0 0 36 36" fill="none" xmlns="http://www.w3.org/2000/svg">
<path d="M18.0002 13.3139C15.4197 13.3139 13.3138 15.4198 13.3138 18.0003C13.3138 20.5807 15.4197 22.6866 18.0002 22.6866C20.5806 22.6866 22.6865 20.5807 22.6865 18.0003C22.6865 15.4198 20.5806 13.3139 18.0002 13.3139ZM32.0556 18.0003C32.0556 16.0596 32.0732 14.1366 31.9642 12.1995C31.8552 9.94948 31.342 7.95261 29.6967 6.3073C28.0478 4.65847 26.0545 4.1487 23.8045 4.03972C21.8638 3.93073 19.9408 3.94831 18.0037 3.94831C16.0631 3.94831 14.14 3.93073 12.2029 4.03972C9.9529 4.1487 7.95603 4.66198 6.31071 6.3073C4.66189 7.95612 4.15212 9.94948 4.04314 12.1995C3.93415 14.1401 3.95173 16.0632 3.95173 18.0003C3.95173 19.9374 3.93415 21.8639 4.04314 23.801C4.15212 26.051 4.6654 28.0479 6.31071 29.6932C7.95954 31.3421 9.9529 31.8518 12.2029 31.9608C14.1435 32.0698 16.0666 32.0522 18.0037 32.0522C19.9443 32.0522 21.8674 32.0698 23.8045 31.9608C26.0545 31.8518 28.0513 31.3385 29.6967 29.6932C31.3455 28.0444 31.8552 26.051 31.9642 23.801C32.0767 21.8639 32.0556 19.9409 32.0556 18.0003ZM18.0002 25.2108C14.0099 25.2108 10.7896 21.9905 10.7896 18.0003C10.7896 14.01 14.0099 10.7897 18.0002 10.7897C21.9904 10.7897 25.2107 14.01 25.2107 18.0003C25.2107 21.9905 21.9904 25.2108 18.0002 25.2108ZM25.506 12.1784C24.5744 12.1784 23.822 11.426 23.822 10.4944C23.822 9.56276 24.5744 8.81042 25.506 8.81042C26.4377 8.81042 27.19 9.56276 27.19 10.4944C27.1903 10.7156 27.1469 10.9347 27.0624 11.1392C26.9779 11.3436 26.8538 11.5294 26.6974 11.6858C26.541 11.8422 26.3552 11.9662 26.1508 12.0508C25.9464 12.1353 25.7272 12.1787 25.506 12.1784Z" fill="#B8B8B8"/>
</svg>
