<svg width="239" height="19" viewBox="0 0 239 19" fill="none" xmlns="http://www.w3.org/2000/svg">
<path d="M236.343 18L232.359 11.16H229.719V18H227.535V1.27197H232.935C234.199 1.27197 235.263 1.48797 236.127 1.91997C237.007 2.35197 237.663 2.93597 238.095 3.67197C238.527 4.40797 238.743 5.24797 238.743 6.19197C238.743 7.34397 238.407 8.35997 237.735 9.23997C237.079 10.12 236.087 10.704 234.759 10.992L238.959 18H236.343ZM229.719 9.40797H232.935C234.119 9.40797 235.007 9.11997 235.599 8.54397C236.191 7.95197 236.487 7.16797 236.487 6.19197C236.487 5.19997 236.191 4.43197 235.599 3.88797C235.023 3.34397 234.135 3.07197 232.935 3.07197H229.719V9.40797Z" fill="black"/>
<path d="M221.252 14.28H213.956L212.612 18H210.308L216.356 1.36804H218.876L224.9 18H222.596L221.252 14.28ZM220.628 12.504L217.604 4.05604L214.58 12.504H220.628Z" fill="black"/>
<path d="M206.068 18L199.18 10.368V18H196.996V1.27197H199.18V9.02397L206.092 1.27197H208.852L201.268 9.64797L208.924 18H206.068Z" fill="black"/>
<path d="M191.203 18L187.219 11.16H184.579V18H182.395V1.27197H187.795C189.059 1.27197 190.123 1.48797 190.987 1.91997C191.867 2.35197 192.523 2.93597 192.955 3.67197C193.387 4.40797 193.603 5.24797 193.603 6.19197C193.603 7.34397 193.267 8.35997 192.595 9.23997C191.939 10.12 190.947 10.704 189.619 10.992L193.819 18H191.203ZM184.579 9.40797H187.795C188.979 9.40797 189.867 9.11997 190.459 8.54397C191.051 7.95197 191.347 7.16797 191.347 6.19197C191.347 5.19997 191.051 4.43197 190.459 3.88797C189.883 3.34397 188.995 3.07197 187.795 3.07197H184.579V9.40797Z" fill="black"/>
<path d="M176.111 14.28H168.815L167.471 18H165.167L171.215 1.36804H173.735L179.759 18H177.455L176.111 14.28ZM175.487 12.504L172.463 4.05604L169.439 12.504H175.487Z" fill="black"/>
<path d="M157.441 18.168C156.337 18.168 155.345 17.976 154.465 17.592C153.601 17.192 152.921 16.648 152.425 15.96C151.929 15.256 151.673 14.448 151.657 13.536H153.985C154.065 14.32 154.385 14.984 154.945 15.528C155.521 16.056 156.353 16.32 157.441 16.32C158.481 16.32 159.297 16.064 159.889 15.552C160.497 15.024 160.801 14.352 160.801 13.536C160.801 12.896 160.625 12.376 160.273 11.976C159.921 11.576 159.481 11.272 158.953 11.064C158.425 10.856 157.713 10.632 156.817 10.392C155.713 10.104 154.825 9.81603 154.153 9.52803C153.497 9.24003 152.929 8.79203 152.449 8.18403C151.985 7.56003 151.753 6.72803 151.753 5.68803C151.753 4.77603 151.985 3.96803 152.449 3.26403C152.913 2.56003 153.561 2.01603 154.393 1.63203C155.241 1.24803 156.209 1.05603 157.297 1.05603C158.865 1.05603 160.145 1.44803 161.137 2.23203C162.145 3.01603 162.713 4.05603 162.841 5.35203H160.441C160.361 4.71203 160.025 4.15203 159.433 3.67203C158.841 3.17603 158.057 2.92803 157.081 2.92803C156.169 2.92803 155.425 3.16803 154.849 3.64803C154.273 4.11203 153.985 4.76803 153.985 5.61603C153.985 6.22403 154.153 6.72003 154.489 7.10403C154.841 7.48803 155.265 7.78403 155.761 7.99203C156.273 8.18403 156.985 8.40803 157.897 8.66403C159.001 8.96803 159.889 9.27203 160.561 9.57603C161.233 9.86403 161.809 10.32 162.289 10.944C162.769 11.552 163.009 12.384 163.009 13.44C163.009 14.256 162.793 15.024 162.361 15.744C161.929 16.464 161.289 17.048 160.441 17.496C159.593 17.944 158.593 18.168 157.441 18.168Z" fill="black"/>
<path d="M134.253 1.15198C136.029 1.15198 137.581 1.50398 138.909 2.20798C140.237 2.91198 141.261 3.90398 141.981 5.18398C142.717 6.44798 143.085 7.91198 143.085 9.57598C143.085 11.224 142.717 12.688 141.981 13.968C141.261 15.248 140.229 16.24 138.885 16.944C137.557 17.648 136.013 18 134.253 18H127.941V1.15198H134.253ZM133.989 14.448C135.541 14.448 136.749 14.024 137.613 13.176C138.477 12.328 138.909 11.128 138.909 9.57598C138.909 8.02398 138.477 6.81598 137.613 5.95198C136.749 5.08798 135.541 4.65598 133.989 4.65598H132.045V14.448H133.989Z" fill="#DC2F3D"/>
<path d="M120.734 15.024H114.446L113.438 18H109.142L115.238 1.15198H119.99L126.086 18H121.742L120.734 15.024ZM119.678 11.856L117.59 5.68798L115.526 11.856H119.678Z" fill="#DC2F3D"/>
<path d="M107.283 1.15198V18H103.179V11.064H96.7949V18H92.6909V1.15198H96.7949V7.75198H103.179V1.15198H107.283Z" fill="#DC2F3D"/>
<path d="M85.6267 18L82.1227 11.64H81.1387V18H77.0347V1.15198H83.9227C85.2507 1.15198 86.3787 1.38398 87.3067 1.84798C88.2507 2.31198 88.9547 2.95198 89.4187 3.76798C89.8827 4.56798 90.1147 5.46398 90.1147 6.45598C90.1147 7.57598 89.7947 8.57598 89.1547 9.45598C88.5307 10.336 87.6027 10.96 86.3707 11.328L90.2587 18H85.6267ZM81.1387 8.73598H83.6827C84.4347 8.73598 84.9947 8.55198 85.3627 8.18398C85.7467 7.81598 85.9387 7.29598 85.9387 6.62398C85.9387 5.98398 85.7467 5.47998 85.3627 5.11198C84.9947 4.74398 84.4347 4.55998 83.6827 4.55998H81.1387V8.73598Z" fill="#DC2F3D"/>
<path d="M66.1357 18.168C64.5517 18.168 63.0957 17.8 61.7677 17.064C60.4557 16.328 59.4077 15.304 58.6237 13.992C57.8557 12.664 57.4717 11.176 57.4717 9.52799C57.4717 7.87999 57.8557 6.39999 58.6237 5.08799C59.4077 3.77599 60.4557 2.75199 61.7677 2.01599C63.0957 1.27999 64.5517 0.911987 66.1357 0.911987C67.7197 0.911987 69.1677 1.27999 70.4797 2.01599C71.8077 2.75199 72.8477 3.77599 73.5997 5.08799C74.3677 6.39999 74.7517 7.87999 74.7517 9.52799C74.7517 11.176 74.3677 12.664 73.5997 13.992C72.8317 15.304 71.7917 16.328 70.4797 17.064C69.1677 17.8 67.7197 18.168 66.1357 18.168ZM66.1357 14.424C67.4797 14.424 68.5517 13.976 69.3517 13.08C70.1677 12.184 70.5757 11 70.5757 9.52799C70.5757 8.03999 70.1677 6.85599 69.3517 5.97599C68.5517 5.07999 67.4797 4.63199 66.1357 4.63199C64.7757 4.63199 63.6877 5.07199 62.8717 5.95199C62.0717 6.83199 61.6717 8.02399 61.6717 9.52799C61.6717 11.016 62.0717 12.208 62.8717 13.104C63.6877 13.984 64.7757 14.424 66.1357 14.424Z" fill="#DC2F3D"/>
<path d="M56.0105 1.15198V4.43998H49.1465V7.99198H54.2825V11.184H49.1465V18H45.0425V1.15198H56.0105Z" fill="#DC2F3D"/>
<path d="M28.831 1.15198C30.607 1.15198 32.159 1.50398 33.487 2.20798C34.815 2.91198 35.839 3.90398 36.559 5.18398C37.295 6.44798 37.663 7.91198 37.663 9.57598C37.663 11.224 37.295 12.688 36.559 13.968C35.839 15.248 34.807 16.24 33.463 16.944C32.135 17.648 30.591 18 28.831 18H22.519V1.15198H28.831ZM28.567 14.448C30.119 14.448 31.327 14.024 32.191 13.176C33.055 12.328 33.487 11.128 33.487 9.57598C33.487 8.02398 33.055 6.81598 32.191 5.95198C31.327 5.08798 30.119 4.65598 28.567 4.65598H26.623V14.448H28.567Z" fill="#DC2F3D"/>
<path d="M19.5678 1.15198V18H15.4638V7.89598L11.6958 18H8.38379L4.59179 7.87198V18H0.487793V1.15198H5.33579L10.0638 12.816L14.7438 1.15198H19.5678Z" fill="#DC2F3D"/>
</svg>
