<svg width="24" height="24" viewBox="0 0 24 24" fill="none" xmlns="http://www.w3.org/2000/svg">
<path d="M22.4994 2.56653H1.49944C1.38158 2.56653 1.28516 2.66296 1.28516 2.78081V4.4951C1.28516 4.61296 1.38158 4.70939 1.49944 4.70939H22.4994C22.6173 4.70939 22.7137 4.61296 22.7137 4.4951V2.78081C22.7137 2.66296 22.6173 2.56653 22.4994 2.56653ZM22.4994 19.2808H1.49944C1.38158 19.2808 1.28516 19.3772 1.28516 19.4951V21.2094C1.28516 21.3272 1.38158 21.4237 1.49944 21.4237H22.4994C22.6173 21.4237 22.7137 21.3272 22.7137 21.2094V19.4951C22.7137 19.3772 22.6173 19.2808 22.4994 19.2808ZM22.4994 10.9237H1.49944C1.38158 10.9237 1.28516 11.0201 1.28516 11.138V12.8522C1.28516 12.9701 1.38158 13.0665 1.49944 13.0665H22.4994C22.6173 13.0665 22.7137 12.9701 22.7137 12.8522V11.138C22.7137 11.0201 22.6173 10.9237 22.4994 10.9237Z" fill="black" fill-opacity="0.85"/>
</svg>
